<?xml version="1.0" encoding="UTF-8"?>
<svg width="56px" height="56px" viewBox="0 0 56 56" version="1.1" xmlns="http://www.w3.org/2000/svg" xmlns:xlink="http://www.w3.org/1999/xlink">
    <title>风</title>
    <g id="UI" stroke="none" stroke-width="1" fill="none" fill-rule="evenodd">
        <g id="新增物模型" transform="translate(-2687.000000, -1515.000000)" fill="#F5F5F5" fill-rule="nonzero">
            <g id="风" transform="translate(2687.000000, 1515.000000)">
                <rect id="矩形" opacity="0" x="0" y="0" width="56" height="56"></rect>
                <path d="M45.5,29.35 C49.5869071,29.35 52.9,32.6630929 52.9,36.75 C52.9,40.8369071 49.5869071,44.15 45.5,44.15 L40.25,44.15 C39.0625878,44.15 38.1,43.1874122 38.1,42 C38.1,40.8125878 39.0625878,39.85 40.25,39.85 L45.5,39.85 C47.2120827,39.85 48.6,38.4620827 48.6,36.75 C48.6,35.0379173 47.2120827,33.65 45.5,33.65 L5.25,33.65 C4.06258779,33.65 3.1,32.6874122 3.1,31.5 C3.1,30.3125878 4.06258779,29.35 5.25,29.35 L45.5,29.35 Z M33.25,39.85 C34.4374122,39.85 35.4,40.8125878 35.4,42 C35.4,43.1874122 34.4374122,44.15 33.25,44.15 L12.25,44.15 C11.0625878,44.15 10.1,43.1874122 10.1,42 C10.1,40.8125878 11.0625878,39.85 12.25,39.85 L33.25,39.85 Z M38.5,11.85 C42.5869071,11.85 45.9,15.1630929 45.9,19.25 C45.9,23.3369071 42.5869071,26.65 38.5,26.65 L12.25,26.65 C11.0625878,26.65 10.1,25.6874122 10.1,24.5 C10.1,23.3125878 11.0625878,22.35 12.25,22.35 L38.5,22.35 C40.2120827,22.35 41.6,20.9620827 41.6,19.25 C41.6,17.5379173 40.2120827,16.15 38.5,16.15 L28,16.15 C26.8125878,16.15 25.85,15.1874122 25.85,14 C25.85,12.8125878 26.8125878,11.85 28,11.85 L38.5,11.85 Z" id="形状结合"></path>
            </g>
        </g>
    </g>
</svg>