<?xml version="1.0" encoding="UTF-8"?>
<svg width="56px" height="56px" viewBox="0 0 56 56" version="1.1" xmlns="http://www.w3.org/2000/svg" xmlns:xlink="http://www.w3.org/1999/xlink">
    <title>龙卷风</title>
    <g id="UI" stroke="none" stroke-width="1" fill="none" fill-rule="evenodd">
        <g id="新增物模型" transform="translate(-2563.000000, -1515.000000)" fill="#F5F5F5" fill-rule="nonzero">
            <g id="龙卷风" transform="translate(2563.000000, 1515.000000)">
                <rect id="矩形" opacity="0" x="0" y="0" width="56" height="56"></rect>
                <path d="M8.99226562,8.52578125 L42.8569531,8.52578125 C44.1876823,8.52578125 44.8530469,9.19114583 44.8530469,10.521875 C44.8530469,11.8526042 44.1876823,12.5179688 42.8569531,12.5179688 L8.99226562,12.5179688 C7.66153646,12.5179688 6.99617187,11.8526042 6.99617187,10.521875 C6.99617187,9.19114583 7.66153646,8.52578125 8.99226562,8.52578125 Z M18.554375,17.2648438 L47.0077344,17.2648438 C48.3384635,17.2648438 49.0038281,17.9302083 49.0038281,19.2609375 C49.0038281,20.5916667 48.3384635,21.2570313 47.0077344,21.2570313 L18.554375,21.2570313 C17.2236458,21.2570313 16.5582813,20.5916667 16.5582813,19.2609375 C16.5582813,17.9302083 17.2236458,17.2648438 18.554375,17.2648438 Z" id="形状"></path>
                <path d="M11.6085156,26.0039062 L33.6448437,26.0039062 C34.9755729,26.0039062 35.6409375,26.6692708 35.6409375,28 C35.6409375,29.3307292 34.9755729,29.9960938 33.6448437,29.9960938 L11.6085156,29.9960938 C10.2777865,29.9960938 9.61242187,29.3307292 9.61242187,28 C9.61242187,26.6692708 10.2777865,26.0039062 11.6085156,26.0039062 Z" id="路径"></path>
                <path d="M15.9933594,34.7429687 L29.0046094,34.7429687 C30.3353385,34.7429687 31.0007031,35.4083333 31.0007031,36.7390625 C31.0007031,38.0697917 30.3353385,38.7351562 29.0046094,38.7351562 L15.9933594,38.7351562 C14.6626302,38.7351562 13.9972656,38.0697917 13.9972656,36.7390625 C13.9972656,35.4083333 14.6626302,34.7429687 15.9933594,34.7429687 Z M22.995,43.4820312 L29.0051562,43.4820312 C30.3358854,43.4820312 31.00125,44.1473958 31.00125,45.478125 C31.00125,46.8088542 30.3358854,47.4742187 29.0051562,47.4742187 L22.995,47.4742187 C21.6642708,47.4742187 20.9989062,46.8088542 20.9989062,45.478125 C20.9989062,44.1473958 21.6642708,43.4820312 22.995,43.4820312 Z" id="形状"></path>
            </g>
        </g>
    </g>
</svg>