<?xml version="1.0" encoding="UTF-8"?>
<svg width="56px" height="56px" viewBox="0 0 56 56" version="1.1" xmlns="http://www.w3.org/2000/svg" xmlns:xlink="http://www.w3.org/1999/xlink">
    <title>霾</title>
    <g id="UI" stroke="none" stroke-width="1" fill="none" fill-rule="evenodd">
        <g id="新增物模型" transform="translate(-2438.000000, -1515.000000)">
            <g id="霾" transform="translate(2438.000000, 1515.000000)">
                <rect id="矩形备份-12" x="0" y="0" width="56" height="56"></rect>
                <path d="M46.9234088,11.1577061 L8.29881338,11.1577061 C7.15668822,11.1577061 6.22222222,10.2222222 6.22222222,9.07885304 C6.22222222,7.93548385 7.15668822,7 8.29881338,7 L46.9234088,7 C48.065534,7 49,7.93548385 49,9.07885304 C49,10.2222222 48.065534,11.1577061 46.9234088,11.1577061 Z M46.9234088,19.6308244 L8.29881338,19.6308244 C7.15668822,19.6308244 6.22222222,18.6953406 6.22222222,17.5519714 C6.22222222,16.4086022 7.15668822,15.4731183 8.29881338,15.4731183 L46.9234088,15.4731183 C48.065534,15.4731183 49,16.4086022 49,17.5519714 C49,18.6953406 48.065534,19.6308244 46.9234088,19.6308244 Z M46.9234088,28 L8.29881338,28 C7.15668822,28 6.22222222,27.0645162 6.22222222,25.921147 C6.22222222,24.7777778 7.15668822,23.8422939 8.29881338,23.8422939 L46.9234088,23.8422939 C48.065534,23.8422939 49,24.7777778 49,25.921147 C49,27.0645162 48.065534,28 46.9234088,28 Z M7.77777778,35 C7.77777778,36.2886644 8.82244669,37.3333333 10.1111111,37.3333333 C11.3997755,37.3333333 12.4444444,36.2886644 12.4444444,35 C12.4444444,33.7113356 11.3997755,32.6666667 10.1111111,32.6666667 C8.82244669,32.6666667 7.77777778,33.7113356 7.77777778,35 L7.77777778,35 Z M19.4444444,35 C19.4444444,36.2886644 20.4891134,37.3333333 21.7777778,37.3333333 C23.0664422,37.3333333 24.1111111,36.2886644 24.1111111,35 C24.1111111,33.7113356 23.0664422,32.6666667 21.7777778,32.6666667 C20.4891134,32.6666667 19.4444444,33.7113356 19.4444444,35 Z M31.1111111,35 C31.1111111,36.2886644 32.15578,37.3333333 33.4444444,37.3333333 C34.7331089,37.3333333 35.7777778,36.2886644 35.7777778,35 C35.7777778,33.7113356 34.7331089,32.6666667 33.4444444,32.6666667 C32.15578,32.6666667 31.1111111,33.7113356 31.1111111,35 L31.1111111,35 Z M42.7777778,35.0000001 C42.7777778,36.2886644 43.8224467,37.3333333 45.1111111,37.3333333 C46.3997755,37.3333333 47.4444444,36.2886644 47.4444444,35.0000001 C47.4444444,34.1663804 46.9997137,33.3960839 46.2777778,32.9792741 C45.555842,32.5624642 44.6663803,32.5624642 43.9444444,32.9792741 C43.2225085,33.3960839 42.7777778,34.1663804 42.7777778,35.0000001 Z M7.77777778,45.8888889 C7.77777778,47.1775533 8.82244669,48.2222222 10.1111111,48.2222222 C11.3997755,48.2222222 12.4444444,47.1775533 12.4444444,45.8888889 C12.4444444,44.6002245 11.3997755,43.5555556 10.1111111,43.5555556 C8.82244669,43.5555556 7.77777778,44.6002245 7.77777778,45.8888889 L7.77777778,45.8888889 Z M19.4444444,45.8888889 C19.4444444,47.1775533 20.4891134,48.2222222 21.7777778,48.2222222 C23.0664422,48.2222222 24.1111111,47.1775533 24.1111111,45.8888889 C24.1111111,44.6002245 23.0664422,43.5555556 21.7777778,43.5555556 C20.4891134,43.5555556 19.4444444,44.6002245 19.4444444,45.8888889 Z M31.1111111,45.8888889 C31.1111111,47.1775533 32.15578,48.2222222 33.4444444,48.2222222 C34.7331089,48.2222222 35.7777778,47.1775533 35.7777778,45.8888889 C35.7777778,44.6002245 34.7331089,43.5555556 33.4444444,43.5555556 C32.15578,43.5555556 31.1111111,44.6002245 31.1111111,45.8888889 L31.1111111,45.8888889 Z M42.7777778,45.888889 C42.7777778,47.1775533 43.8224467,48.2222222 45.1111111,48.2222222 C46.3997755,48.2222222 47.4444444,47.1775533 47.4444444,45.888889 C47.4444444,45.0552692 46.9997137,44.2849728 46.2777778,43.868163 C45.555842,43.4513531 44.6663803,43.4513531 43.9444444,43.868163 C43.2225085,44.2849728 42.7777778,45.0552692 42.7777778,45.888889 Z M13.2222222,40.4444444 C13.2222222,41.7331089 14.2668911,42.7777778 15.5555556,42.7777778 C16.84422,42.7777778 17.8888889,41.7331089 17.8888889,40.4444444 C17.8888889,39.15578 16.84422,38.1111111 15.5555556,38.1111111 C14.2668911,38.1111111 13.2222222,39.15578 13.2222222,40.4444444 L13.2222222,40.4444444 Z M25.6666667,40.4444444 C25.6666667,41.7331089 26.7113356,42.7777778 28,42.7777778 C29.2886644,42.7777778 30.3333333,41.7331089 30.3333333,40.4444444 C30.3333333,39.15578 29.2886644,38.1111111 28,38.1111111 C26.7113356,38.1111111 25.6666667,39.15578 25.6666667,40.4444444 L25.6666667,40.4444444 Z M36.5555556,40.4444444 C36.5555556,41.7331089 37.6002245,42.7777778 38.8888889,42.7777778 C40.1775533,42.7777778 41.2222222,41.7331089 41.2222222,40.4444444 C41.2222222,39.15578 40.1775533,38.1111111 38.8888889,38.1111111 C37.6002245,38.1111111 36.5555556,39.15578 36.5555556,40.4444444 L36.5555556,40.4444444 Z" id="形状结合" fill="#F5F5F5" fill-rule="nonzero"></path>
            </g>
        </g>
    </g>
</svg>